<svg xmlns="http://www.w3.org/2000/svg" width="45" height="45" viewBox="0 0 45 45">
  <g id="Group_8455" data-name="Group 8455" transform="translate(-1503 -5346)">
    <g id="Ellipse_1746" data-name="Ellipse 1746" transform="translate(1503 5346)" fill="none" stroke="#fff" stroke-width="1">
      <circle cx="22.5" cy="22.5" r="22.5" stroke="none"/>
      <circle cx="22.5" cy="22.5" r="22" fill="none"/>
    </g>
    <path id="Path_23027" data-name="Path 23027" d="M376.575,418.539a4.322,4.322,0,0,0,1.914-2.487,10.154,10.154,0,0,1-2.8,1.052,4.119,4.119,0,0,0-3.173-1.392,4.273,4.273,0,0,0-3.154,1.317,4.409,4.409,0,0,0-1.283,3.183,3.3,3.3,0,0,0,.139,1,11.72,11.72,0,0,1-9.1-4.689,4.6,4.6,0,0,0-.608,2.256,4.384,4.384,0,0,0,1.963,3.774,4.786,4.786,0,0,1-1.963-.573,4.555,4.555,0,0,0,.978,2.917,4.3,4.3,0,0,0,2.524,1.578,4.593,4.593,0,0,1-1.168.144,2.168,2.168,0,0,1-.792-.1,4.393,4.393,0,0,0,4.107,3.156,8.461,8.461,0,0,1-5.461,1.91,6.852,6.852,0,0,1-1.076-.048,12.452,12.452,0,0,0,13.54.029,12.343,12.343,0,0,0,4.341-4.855,13.44,13.44,0,0,0,1.4-5.978v-.573a9.411,9.411,0,0,0,2.195-2.347A9.56,9.56,0,0,1,376.575,418.539Z" transform="translate(1157.383 4944.288)" fill="#fff" fill-rule="evenodd"/>
  </g>
</svg>
