<svg xmlns="http://www.w3.org/2000/svg" width="42.507" height="35.316" viewBox="0 0 42.507 35.316">
  <path id="Path_23027" data-name="Path 23027" d="M395.143,421.309a8.554,8.554,0,0,0,3.789-4.923,20.1,20.1,0,0,1-5.551,2.082,8.153,8.153,0,0,0-6.282-2.755,8.458,8.458,0,0,0-6.242,2.607,8.728,8.728,0,0,0-2.54,6.3,6.539,6.539,0,0,0,.275,1.984,23.2,23.2,0,0,1-18.012-9.281,9.112,9.112,0,0,0-1.2,4.465,8.678,8.678,0,0,0,3.885,7.47,9.474,9.474,0,0,1-3.885-1.134,9.015,9.015,0,0,0,1.936,5.774,8.519,8.519,0,0,0,5,3.123A9.09,9.09,0,0,1,364,437.3a4.291,4.291,0,0,1-1.569-.2,8.7,8.7,0,0,0,8.13,6.248,16.748,16.748,0,0,1-10.811,3.781,13.563,13.563,0,0,1-2.129-.1,23.629,23.629,0,0,0,13.4,3.99,23.394,23.394,0,0,0,13.4-3.933,24.433,24.433,0,0,0,8.593-9.611,26.6,26.6,0,0,0,2.767-11.833v-1.133a18.628,18.628,0,0,0,4.345-4.645A18.922,18.922,0,0,1,395.143,421.309Z" transform="translate(-357.617 -415.712)" fill="#fff" fill-rule="evenodd"/>
</svg>
