<svg xmlns="http://www.w3.org/2000/svg" width="43.727" height="43.726" viewBox="0 0 43.727 43.726">
  <path id="Forma_1" data-name="Forma 1" d="M963.03,4827.936h-.011a21.849,21.849,0,0,0-17.7,34.676l-2.725,8.124,8.4-2.686a21.86,21.86,0,1,0,12.027-40.114Zm12.722,30.874c-.527,1.49-2.621,2.724-4.291,3.085-1.142.244-2.635.437-7.657-1.645-6.425-2.662-10.563-9.19-10.886-9.615s-2.6-3.456-2.6-6.6a6.978,6.978,0,0,1,2.235-5.319,3.177,3.177,0,0,1,2.236-.785c.271,0,.514.015.732.025.642.027.965.066,1.388,1.079.528,1.271,1.812,4.409,1.965,4.73a1.3,1.3,0,0,1,.093,1.184,3.78,3.78,0,0,1-.708,1c-.323.371-.629.656-.951,1.056-.3.346-.629.717-.257,1.359a19.359,19.359,0,0,0,3.547,4.409,16.036,16.036,0,0,0,5.127,3.161,1.379,1.379,0,0,0,1.541-.243,26.193,26.193,0,0,0,1.708-2.263,1.22,1.22,0,0,1,1.569-.475c.59.205,3.714,1.749,4.356,2.068s1.066.475,1.222.747A5.448,5.448,0,0,1,975.751,4858.81Z" transform="translate(-941.161 -4827.936)" fill="#fff"/>
</svg>
